#!OML:ASF H:\LiuWeirdWalks\Patient Classification 1\Patient 1\Session 1\male.ASF
:FULLY-SPECIFIED
:DEGREES
147
root 0.134137 17.8585 -16.8215 10.4472 4.03919 2.8801
lowerback 9.09218 2.00996 -5.51733
upperback -0.626456 2.06163 -0.168083
thorax -5.96036 1.18482 2.63342
lowerneck -17.5289 -1.85498 2.23548
upperneck 14.1404 -2.45519 -3.53186
head 7.13433 -1.38701 -1.79029
rclavicle -1.73937e-014 2.127e-014
rhumerus -30.4233 -4.55609 -81.5826
rradius 28.1032
rwrist -3.73282
rhand -18.6647 -2.62583
rfingers 7.12502
rthumb 7.62881 -32.4682
lclavicle -1.73937e-014 2.127e-014
lhumerus -41.2236 22.3352 68.8403
lradius 15.6412
lwrist -7.12678
lhand -17.401 1.44928
lfingers 7.12502
lthumb 8.8484 31.2438
rfemur -11.4081 -8.32339 13.7255
rtibia 63.9277
rfoot 7.43187 -17.5523
rtoes -0.856781
lfemur -25.8748 1.53042 -23.4436
ltibia 32.1237
lfoot -15.1676 10.8169
ltoes -12.8949
148
root 0.160585 17.8706 -16.5747 10.2852 4.16694 3.30385
lowerback 9.16121 1.77807 -5.8304
upperback -0.612887 1.70946 -0.249673
thorax -5.96137 1.02004 2.77414
lowerneck -17.4767 -1.7243 2.32965
upperneck 14.1998 -2.29914 -3.5355
head 7.14869 -1.30702 -1.79005
rclavicle 1.38652e-014 -2.38542e-015
rhumerus -31.5109 -5.17304 -81.2422
rradius 27.3961
rwrist -3.78503
rhand -18.7035 -3.00831
rfingers 7.12502
rthumb 7.59131 -32.8521
lclavicle 1.38652e-014 -2.38542e-015
lhumerus -39.6255 20.7807 71.0171
lradius 16.3702
lwrist -5.11491
lhand -17.7118 1.38658
lfingers 7.12502
lthumb 8.54849 31.1935
rfemur -13.4966 -9.2877 13.1618
rtibia 65.6553
rfoot 4.68433 -17.9122
rtoes 1.87172
lfemur -24.4343 1.18153 -23.9176
ltibia 31.4916
lfoot -14.7511 11.0382
ltoes -11.3686
149
root 0.186959 17.8785 -16.3284 10.1548 4.28705 3.69634
lowerback 9.20784 1.54832 -6.11283
upperback -0.602836 1.36533 -0.319903
thorax -5.95077 0.858248 2.90901
lowerneck -17.42 -1.60467 2.40719
upperneck 14.202 -2.1551 -3.53671
head 7.14356 -1.23354 -1.78669
rclavicle 1.16289e-014 -6.75868e-015
rhumerus -32.6011 -5.79135 -80.8205
rradius 26.6775
rwrist -3.76237
rhand -18.6968 -3.35679
rfingers 7.12502
rthumb 7.59778 -33.2003
lclavicle 1.16289e-014 -6.75868e-015
lhumerus -38.0613 19.1336 73.1028
lradius 17.2159
lwrist -3.01341
lhand -18.0078 1.27203
lfingers 7.12502
lthumb 8.26277 31.0904
rfemur -15.6361 -10.2175 12.7063
rtibia 67.1043
rfoot 1.95767 -18.2849
rtoes 3.66191
lfemur -23.0709 0.814077 -24.3738
ltibia 30.9412
lfoot -14.3593 11.3772
ltoes -9.90397
150
root 0.213289 17.8813 -16.0828 10.0475 4.35708 4.08423
lowerback 9.25509 1.3376 -6.39558
upperback -0.613648 1.04512 -0.395112
thorax -5.96246 0.709218 3.03503
lowerneck -17.3891 -1.48115 2.51762
upperneck 14.2216 -2.00784 -3.57348
head 7.14794 -1.16019 -1.80064
rclavicle 1.57537e-014 -1.09332e-014
rhumerus -33.7356 -6.42056 -80.316
rradius 25.9708
rwrist -3.65669
rhand -18.607 -3.70394
rfingers 7.12502
rthumb 7.68448 -33.5443
lclavicle 1.57537e-014 -1.09332e-014
lhumerus -36.5749 17.4398 75.0265
lradius 18.1612
lwrist -0.907231
lhand -18.3039 1.11965
lfingers 7.12502
lthumb 7.97705 30.9491
rfemur -17.824 -11.0749 12.3235
rtibia 68.2973
rfoot -0.81215 -18.7294
rtoes 4.5513
lfemur -21.7698 0.455492 -24.8476
ltibia 30.4666
lfoot -14.0314 11.842
ltoes -8.64348
151
root 0.238995 17.8789 -15.8389 9.95828 4.37017 4.49803
lowerback 9.30001 1.14977 -6.71901
upperback -0.618208 0.750557 -0.476149
thorax -5.96728 0.57371 3.17412
lowerneck -17.4022 -1.36225 2.61113
upperneck 14.2357 -1.86341 -3.61057
head 7.15833 -1.08945 -1.81279
rclavicle 3.97569e-016 -3.97569e-016
rhumerus -34.8479 -7.0881 -79.7098
rradius 25.2507
rwrist -3.42075
rhand -18.4268 -4.07632
rfingers 7.12502
rthumb 7.8584 -33.9103
lclavicle 3.97569e-016 -3.97569e-016
lhumerus -35.1111 15.7702 76.7843
lradius 19.1821
lwrist 1.14771
lhand -18.5811 0.964239
lfingers 7.12502
lthumb 7.70949 30.8037
rfemur -20.0664 -11.8495 11.9863
rtibia 69.2529
rfoot -3.28676 -19.2947
rtoes 5.55671
lfemur -20.5237 0.10114 -25.3685
ltibia 30.059
lfoot -13.7755 12.4203
ltoes -7.69029
152
root 0.264063 17.8708 -15.5959 9.85837 4.30345 4.95272
lowerback 9.36508 0.99636 -7.10843
upperback -0.615996 0.491964 -0.567111
thorax -5.97874 0.457888 3.33443
lowerneck -17.4532 -1.2322 2.74145
upperneck 14.2462 -1.70701 -3.68705
head 7.17389 -1.01494 -1.84297
rclavicle 1.9133e-015 -6.55989e-015
rhumerus -35.9572 -7.82378 -78.9802
rradius 24.5111
rwrist -3.02201
rhand -18.1416 -4.42097
rfingers 7.12502
rthumb 8.13363 -34.2444
lclavicle 1.9133e-015 -6.55989e-015
lhumerus -33.6807 14.1241 78.3748
lradius 20.2744
lwrist 3.1447
lhand -18.8586 0.840659
lfingers 7.12502
lthumb 7.44162 30.6898
rfemur -22.3185 -12.5045 11.6645
rtibia 69.9747
rfoot -5.56135 -19.898
rtoes 6.44346
lfemur -19.2906 -0.246391 -25.9552
ltibia 29.7088
lfoot -13.6257 13.1151
ltoes -7.09461
153
root 0.28758 17.8569 -15.3541 9.74858 4.16148 5.44456
lowerback 9.45303 0.877211 -7.56467
upperback -0.605865 0.26851 -0.66684
thorax -5.99696 0.361398 3.51786
lowerneck -17.5156 -1.10132 2.87304
upperneck 14.2497 -1.54943 -3.76843
head 7.18944 -0.940375 -1.87483
rclavicle 1.43622e-014 1.80894e-014
rhumerus -37.0415 -8.66344 -78.103
rradius 23.7173
rwrist -2.43149
rhand -17.7361 -4.67978
rfingers 7.12502
rthumb 8.52504 -34.4877
lclavicle 1.43622e-014 1.80894e-014
lhumerus -32.2653 12.5401 79.7832
lradius 21.3986
lwrist 4.99704
lhand -19.1125 0.706048
lfingers 7.12502
lthumb 7.19659 30.5637
rfemur -24.5702 -13.0216 11.361
rtibia 70.4592
rfoot -7.52758 -20.5551
rtoes 7.51768
lfemur -18.0716 -0.572861 -26.5993
ltibia 29.4
lfoot -13.5653 13.8798
ltoes -6.85504
154
root 0.309353 17.8382 -15.1131 9.6273 3.96737 5.9728
lowerback 9.5655 0.785377 -8.08826
upperback -0.591766 0.0703337 -0.769698
thorax -6.02589 0.279802 3.73212
lowerneck -17.6139 -0.992314 2.96285
upperneck 14.2843 -1.41509 -3.82877
head 7.22126 -0.877503 -1.89632
rclavicle 1.01132e-014 -2.26615e-014
rhumerus -38.1228 -9.60794 -77.0549
rradius 22.8676
rwrist -1.63265
rhand -17.2342 -4.82341
rfingers 7.12502
rthumb 9.00935 -34.611
lclavicle 1.01132e-014 -2.26615e-014
lhumerus -30.8684 11.0163 81.0249
lradius 22.5586
lwrist 6.75066
lhand -19.3505 0.623484
lfingers 7.12502
lthumb 6.96679 30.4888
rfemur -26.7952 -13.4108 11.0671
rtibia 70.6888
rfoot -9.11047 -21.2041
rtoes 8.87642
lfemur -16.848 -0.880371 -27.2974
ltibia 29.1092
lfoot -13.5989 14.682
ltoes -6.90967
155
root 0.32881 17.816 -14.8724 9.4994 3.73247 6.51675
lowerback 9.70957 0.717032 -8.66293
upperback -0.579343 -0.10731 -0.87166
thorax -6.07484 0.210952 3.97307
lowerneck -17.7221 -0.886264 3.05619
upperneck 14.313 -1.28611 -3.88942
head 7.25286 -0.817169 -1.919
rclavicle 3.00662e-015 8.15017e-015
rhumerus -39.2075 -10.6599 -75.8365
rradius 21.9789
rwrist -0.617367
rhand -16.673 -4.89776
rfingers 7.12502
rthumb 9.55089 -34.6613
lclavicle 3.00662e-015 8.15017e-015
lhumerus -29.4854 9.56744 82.0978
lradius 23.7366
lwrist 8.34579
lhand -19.5398 0.534225
lfingers 7.12502
lthumb 6.7841 30.4055
rfemur -28.9764 -13.6685 10.7972
rtibia 70.6412
rfoot -10.3708 -21.7664
rtoes 10.2327
lfemur -15.6092 -1.1334 -28.0233
ltibia 28.8007
lfoot -13.6616 15.477
ltoes -7.21196
156
root 0.345562 17.793 -14.6306 9.35975 3.47475 7.03838
lowerback 9.87885 0.667453 -9.24307
upperback -0.581451 -0.266026 -0.967236
thorax -6.15373 0.153725 4.22122
lowerneck -17.7848 -0.791224 3.14139
upperneck 14.3181 -1.17214 -3.93529
head 7.26874 -0.762791 -1.93621
rclavicle -6.70898e-016 -2.18663e-014
rhumerus -40.3484 -11.7765 -74.4558
rradius 21.0808
rwrist 0.574159
rhand -16.1051 -4.93448
rfingers 7.12502
rthumb 10.0988 -34.6721
lclavicle -6.70898e-016 -2.18663e-014
lhumerus -28.1493 8.17021 83.003
lradius 24.9364
lwrist 9.81516
lhand -19.6818 0.471698
lfingers 7.12502
lthumb 6.64697 30.3474
rfemur -31.0701 -13.7967 10.5833
rtibia 70.2838
rfoot -11.3143 -22.2067
rtoes 11.4177
lfemur -14.3255 -1.29703 -28.7269
ltibia 28.4323
lfoot -13.7397 16.2071
ltoes -7.65176
157
root 0.359977 17.7719 -14.3869 9.22288 3.21963 7.51659
lowerback 10.047 0.622712 -9.80378
upperback -0.5838 -0.417354 -1.04722
thorax -6.23089 0.1002 4.47412
lowerneck -17.8431 -0.715563 3.1973
upperneck 14.3054 -1.08252 -3.95227
head 7.27754 -0.718936 -1.94147
rclavicle -2.18663e-015 4.37326e-015
rhumerus -41.5087 -12.9617 -72.912
rradius 20.1534
rwrist 1.97992
rhand -15.6141 -4.89832
rfingers 7.12502
rthumb 10.5724 -34.6124
lclavicle -2.18663e-015 4.37326e-015
lhumerus -26.8288 6.82318 83.7631
lradius 26.1566
lwrist 11.1718
lhand -19.7954 0.418354
lfingers 7.12502
lthumb 6.53736 30.2975
rfemur -33.059 -13.822 10.4404
rtibia 69.5942
rfoot -11.9404 -22.4911
rtoes 12.3473
lfemur -12.9906 -1.36792 -29.3782
ltibia 27.9617
lfoot -13.768 16.8363
ltoes -8.16016
